<svg width="21" height="11" viewBox="0 0 21 11" fill="none" xmlns="http://www.w3.org/2000/svg">
<path d="M9.39154 9.59912C9.44487 9.55412 9.49904 9.50746 9.54904 9.45829C6.76487 12.19 2.22487 10.915 1.16071 7.06246V7.05662C-0.266793 1.81496 5.75237 -2.16671 9.54737 1.49996C9.62654 1.58412 14.869 7.17496 14.5357 6.81912H14.5507C15.3332 7.62579 16.4649 7.53746 17.1382 6.83246C17.8624 6.07579 17.8882 4.84079 17.1774 4.07162C16.0549 2.77912 13.8507 3.74496 14.0615 5.66079L12.7999 4.37579L11.3365 2.97662C11.6382 2.37746 12.034 1.85329 12.5299 1.39996C12.4765 1.44579 12.4224 1.49329 12.3724 1.54079C15.1674 -1.20088 19.704 0.104123 20.7607 3.93996V3.94496C22.1915 9.18579 16.1657 13.1675 12.374 9.50079C12.2965 9.41746 7.05737 3.79162 7.38904 4.14829L7.38571 4.13579C7.37237 4.13579 7.37237 4.12329 7.37237 4.12329C6.55071 3.27579 5.43654 3.40329 4.78487 4.09746C4.05987 4.85412 4.03487 6.08912 4.74737 6.84662C5.82071 8.10912 8.07237 7.17329 7.86071 5.21912C7.94237 5.30329 10.7682 8.20412 10.5882 8.01996C10.1307 8.93246 9.61904 9.35162 9.39154 9.59912Z" fill="#232229"/>
</svg>
