<svg width="44" height="28" viewBox="0 0 44 28" fill="none" xmlns="http://www.w3.org/2000/svg">
<path d="M29.9277 0.7175C26.9413 0.7175 24.0572 1.73272 21.7392 3.58891C19.5237 1.98071 16.8678 1.11103 14.0793 1.11103C12.7514 1.11103 11.4361 1.31048 10.1693 1.70581L9.60866 1.88011L9.66796 2.46408C9.72007 2.98158 9.54038 3.49549 9.17562 3.86565C9.03007 4.0112 8.86117 4.1262 8.67431 4.20526L7.80463 4.57362L8.3904 5.31394C9.11094 6.22497 9.03725 7.52769 8.2197 8.34525C7.79025 8.7747 7.22062 9.01009 6.61328 9.01009C6.10117 9.01009 5.59986 8.83579 5.20095 8.51775L4.49659 7.95531L4.10488 8.76928C4.00784 8.97233 3.88566 9.14662 3.74191 9.29216C3.36996 9.66411 2.85963 9.84738 2.34034 9.79347L1.75637 9.73417L1.58207 10.2948C0.130215 14.9523 1.37183 19.9944 4.82005 23.4531C7.29076 25.9238 10.5774 27.284 14.0739 27.284C17.089 27.284 19.9462 26.2706 22.2587 24.409C24.5047 26.0334 27.1425 26.8887 29.9259 26.8887C37.1406 26.8887 43.0088 21.0182 43.0088 13.804C43.0124 6.58754 37.142 0.717482 29.9273 0.717482L29.9277 0.7175ZM5.84071 22.4364C2.89385 19.4805 1.75821 15.2273 2.81299 11.2239C3.54793 11.1556 4.23071 10.8358 4.7626 10.3057C4.83807 10.2302 4.90995 10.1494 4.98003 10.0649C5.48676 10.3147 6.04916 10.4476 6.61878 10.4476C7.60884 10.4476 8.53964 10.0613 9.24041 9.36053C10.3796 8.22129 10.6348 6.50351 9.95019 5.10194C10.0364 5.03186 10.1209 4.95819 10.2 4.87733C10.7228 4.34548 11.0373 3.65907 11.1038 2.93309C12.0741 2.67794 13.0731 2.54856 14.0812 2.54856C17.1898 2.54856 20.1132 3.75965 22.3143 5.96084C26.8568 10.5033 26.8568 17.8923 22.3143 22.4344C20.1149 24.6337 17.1894 25.8448 14.0775 25.8448C10.9636 25.8448 8.03819 24.6338 5.84077 22.4362L5.84071 22.4364ZM29.9277 25.4498C27.5558 25.4498 25.3024 24.749 23.3584 23.4211C28.429 18.316 28.4203 10.0378 23.3279 4.94564C23.1841 4.80009 23.035 4.65993 22.8858 4.52337C24.9055 2.99424 27.3744 2.1569 29.928 2.1569C36.35 2.1569 41.5733 7.38204 41.5733 13.8041C41.5751 20.2243 36.35 25.4495 29.928 25.4495L29.9277 25.4498Z" fill="#232229"/>
<path d="M14.8521 10.2354C15.4703 10.2354 16.0507 9.99458 16.4855 9.55971C16.9239 9.12846 17.1665 8.54988 17.1701 7.93173C17.1719 7.3082 16.9311 6.72243 16.4855 6.27679C16.0471 5.84554 15.4667 5.60836 14.8521 5.60836C14.2376 5.60836 13.6572 5.84555 13.2098 6.2858C12.3168 7.19324 12.3186 8.66129 13.2134 9.55792C13.6518 9.99456 14.234 10.2354 14.8521 10.2354H14.8521ZM14.2268 7.29927C14.3939 7.13396 14.6167 7.04412 14.8521 7.04412C15.0875 7.04412 15.3103 7.13576 15.4739 7.29568C15.6428 7.46459 15.7344 7.6874 15.7326 7.92459C15.7308 8.15639 15.641 8.37381 15.4739 8.53911C15.1397 8.87332 14.5664 8.87332 14.2304 8.53911C13.8908 8.1995 13.8926 7.63889 14.2269 7.29927L14.2268 7.29927Z" fill="#232229"/>
<path d="M5.8246 12.654C5.20645 12.654 4.62607 12.8948 4.18226 13.3387C3.2964 14.2389 3.29639 15.7051 4.18586 16.6108C4.62429 17.0492 5.2065 17.2918 5.82461 17.2918C6.44271 17.2918 7.02314 17.0492 7.46336 16.6108C8.36717 15.707 8.36717 14.2371 7.46336 13.3351C7.02312 12.8966 6.44271 12.654 5.82461 12.654H5.8246ZM6.44634 15.5955C6.11212 15.9297 5.53351 15.9261 5.20829 15.5991C4.86868 15.2541 4.86868 14.6935 5.2047 14.3521C5.37181 14.185 5.59282 14.0933 5.82643 14.0933C6.06003 14.0933 6.28104 14.185 6.44817 14.3521C6.79497 14.7007 6.79497 15.2469 6.44637 15.5955L6.44634 15.5955Z" fill="#232229"/>
<path d="M14.7174 19.5812C15.3355 19.5812 15.9159 19.3386 16.3597 18.8966C17.2456 17.9963 17.2456 16.5301 16.3507 15.6209C15.9123 15.1896 15.3319 14.9524 14.7174 14.9524C14.1028 14.9524 13.5224 15.1896 13.0786 15.6244C12.1748 16.5282 12.1748 17.9963 13.0786 18.9001C13.5188 19.3404 14.1011 19.5812 14.7174 19.5812H14.7174ZM14.0921 16.6469C14.2592 16.4816 14.482 16.3917 14.7174 16.3917C14.9528 16.3917 15.1756 16.4834 15.3355 16.6397C15.6751 16.9847 15.6751 17.5453 15.3391 17.8867C15.0049 18.2209 14.4317 18.2209 14.0957 17.8867C13.7489 17.5363 13.7489 16.9901 14.0921 16.6469L14.0921 16.6469Z" fill="#232229"/>
<path d="M19.5547 10.0054C18.9365 10.0054 18.3562 10.2479 17.9213 10.681C17.4829 11.1123 17.2403 11.6908 17.2367 12.309C17.2349 12.9325 17.4757 13.5183 17.9213 13.9639C18.3598 14.3952 18.9401 14.6324 19.5547 14.6324C20.1692 14.6324 20.7496 14.3952 21.1934 13.9603C21.6355 13.5183 21.8763 12.9325 21.8745 12.309C21.8709 11.6909 21.6283 11.1123 21.1934 10.6847C20.755 10.2463 20.1728 10.0055 19.5547 10.0055V10.0054ZM20.1818 12.9414C19.8458 13.2721 19.2618 13.2667 18.9348 12.945C18.7659 12.7761 18.6742 12.5533 18.676 12.3161C18.6778 12.0843 18.7677 11.8669 18.9348 11.7016C19.1019 11.5345 19.3229 11.4429 19.5565 11.4429C19.7901 11.4429 20.0111 11.5345 20.1819 11.707C20.3454 11.8687 20.4352 12.0843 20.437 12.3161C20.437 12.5533 20.3454 12.7761 20.1819 12.9415L20.1818 12.9414Z" fill="#232229"/>
<path d="M15.2619 19.7716C14.6438 19.7716 14.0634 20.0124 13.6232 20.4527C13.1847 20.8911 12.9421 21.4733 12.9421 22.0914C12.9421 22.7095 13.1847 23.2899 13.6268 23.7337C14.0652 24.165 14.6456 24.4022 15.2601 24.4022C15.8746 24.4022 16.4551 24.165 16.9025 23.7247C17.7883 22.8245 17.7883 21.3583 16.8989 20.4526C16.4622 20.0142 15.8801 19.7716 15.2619 19.7716L15.2619 19.7716ZM15.889 22.7077C15.553 23.0383 14.969 23.0329 14.642 22.7113C14.4749 22.5442 14.3833 22.3232 14.3833 22.0896C14.3833 21.856 14.4749 21.635 14.642 21.4678C14.8091 21.3007 15.0301 21.2091 15.2638 21.2091C15.4974 21.2091 15.7184 21.3007 15.8819 21.4642C16.2197 21.8092 16.2197 22.3717 15.8891 22.7077L15.889 22.7077Z" fill="#232229"/>
<path d="M30.1112 8.8733C30.9971 7.97308 30.9971 6.50683 30.1022 5.59759C29.6638 5.16634 29.0834 4.92917 28.4688 4.92917C27.8543 4.92917 27.2739 5.16635 26.8301 5.60118C25.9263 6.50499 25.9263 7.97303 26.8301 8.87689C27.2685 9.31532 27.8507 9.55792 28.4688 9.55792C29.0869 9.55792 29.6692 9.31534 30.1112 8.8733H30.1112ZM27.8435 6.62183C28.0106 6.45652 28.2334 6.36667 28.4688 6.36667C28.7042 6.36667 28.927 6.45831 29.087 6.61464C29.4266 6.95964 29.4266 7.52029 29.0906 7.86165C28.7564 8.19587 28.1831 8.19587 27.8472 7.86165C27.5004 7.51306 27.5004 6.96682 27.8436 6.62182L27.8435 6.62183Z" fill="#232229"/>
<path d="M37.8862 12.5896C37.4514 12.1476 36.871 11.905 36.2474 11.905C35.6275 11.905 35.0435 12.1476 34.6015 12.5896C33.7156 13.4899 33.7156 14.9561 34.6105 15.8653C35.0489 16.2966 35.6311 16.5338 36.2475 16.5338C36.8674 16.5338 37.4478 16.2948 37.8808 15.8618C38.3193 15.4233 38.5619 14.8411 38.5619 14.223C38.5637 13.6067 38.3211 13.0245 37.8862 12.5896H37.8862ZM36.8655 14.8447C36.5385 15.1717 35.9438 15.1609 35.6275 14.8483C35.2879 14.5033 35.2879 13.9426 35.6239 13.6013C35.791 13.4342 36.0138 13.3425 36.2492 13.3425C36.4828 13.3425 36.7002 13.4342 36.8674 13.6013C37.0345 13.7684 37.1261 13.9894 37.1261 14.223C37.1261 14.4566 37.0327 14.6776 36.8656 14.8447L36.8655 14.8447Z" fill="#232229"/>
<path d="M30.4617 18.2909C29.8472 18.2909 29.2668 18.5281 28.8194 18.9683C27.9335 19.8685 27.9335 21.3348 28.8248 22.2404C29.2632 22.6789 29.8454 22.9215 30.4635 22.9215C31.0816 22.9215 31.662 22.6789 32.1023 22.2404C33.0061 21.3366 33.0061 19.8667 32.0987 18.9594C31.6584 18.5281 31.078 18.2909 30.4617 18.2909L30.4617 18.2909ZM31.0834 21.2234C30.7492 21.5576 30.1706 21.554 29.8454 21.227C29.5058 20.882 29.5058 20.3213 29.8364 19.9835C30.0035 19.8182 30.2263 19.7284 30.4617 19.7284C30.6971 19.7284 30.9199 19.8182 31.0835 19.98C31.4321 20.3285 31.4321 20.8748 31.0835 21.2234H31.0834Z" fill="#232229"/>
<path d="M31.2272 14.8248C32.131 13.921 32.131 12.4511 31.2272 11.5491C30.7941 11.116 30.2138 10.8771 29.5938 10.8771C28.9739 10.8771 28.3953 11.116 27.9605 11.5491C27.522 11.9875 27.2794 12.5697 27.2794 13.1878C27.2794 13.8059 27.522 14.3864 27.9551 14.8212C28.3899 15.2632 28.9703 15.5058 29.592 15.5058C30.2156 15.504 30.7977 15.2614 31.2272 14.8248V14.8248ZM28.7188 13.186C28.7188 12.9524 28.8104 12.7314 28.9775 12.5643C29.1392 12.4026 29.3584 12.3127 29.5938 12.3127C29.8292 12.3127 30.0484 12.4026 30.2101 12.5643C30.5587 12.9129 30.5587 13.4591 30.2065 13.8113C29.8831 14.1401 29.3099 14.1455 28.9775 13.8077C28.8103 13.6406 28.7187 13.4196 28.7187 13.186L28.7188 13.186Z" fill="#232229"/>
</svg>
