<svg width="11" height="18" viewBox="0 0 11 18" fill="none" xmlns="http://www.w3.org/2000/svg">
<path d="M10.0113 17.0309C10.249 16.7931 10.3825 16.4706 10.3825 16.1344C10.3825 15.7982 10.249 15.4758 10.0113 15.238L3.73496 8.96168L10.0113 2.68536C10.2422 2.44622 10.37 2.12594 10.3672 1.79349C10.3643 1.46104 10.2309 1.14302 9.99583 0.907934C9.76074 0.672848 9.44272 0.539501 9.11027 0.536611C8.77782 0.533724 8.45754 0.661524 8.2184 0.89249L1.04565 8.06524C0.807945 8.30301 0.674412 8.62546 0.674412 8.96168C0.674412 9.29789 0.807945 9.62034 1.04565 9.85811L8.2184 17.0309C8.45617 17.2686 8.77862 17.4021 9.11484 17.4021C9.45105 17.4021 9.7735 17.2686 10.0113 17.0309Z" fill="#B5B5B5"/>
</svg>
