<svg width="22" height="21" viewBox="0 0 22 21" fill="none" xmlns="http://www.w3.org/2000/svg">
<path fill-rule="evenodd" clip-rule="evenodd" d="M13.0626 19.4377C11.9255 19.4377 11.0001 18.5123 11.0001 17.3751C11.0001 16.238 11.9255 15.3126 13.0626 15.3126C14.1997 15.3126 15.1251 16.238 15.1251 17.3751C15.1251 18.5123 14.1997 19.4377 13.0626 19.4377ZM4.12503 6.37505C5.26216 6.37505 6.18755 7.30043 6.18755 8.43757C6.18755 9.5747 5.26216 10.5001 4.12503 10.5001C2.9879 10.5001 2.06252 9.5747 2.06252 8.43757C2.06252 7.30043 2.9879 6.37505 4.12503 6.37505ZM13.0626 13.9376C11.3294 13.9376 9.90557 15.2321 9.67251 16.9021L4.59734 11.8276C6.26798 11.5939 7.56255 10.1707 7.56255 8.43753C7.56255 6.54207 6.02048 5 4.12503 5C2.22957 5 0.6875 6.54207 0.6875 8.43753C0.6875 9.3801 1.07044 10.2347 1.68644 10.8562C1.68988 10.8596 1.69126 10.8644 1.6947 10.8685L10.6323 19.8061C10.6364 19.8095 10.6412 19.8102 10.6446 19.8144C11.2668 20.4304 12.1207 20.8126 13.0626 20.8126C14.958 20.8126 16.5001 19.2705 16.5001 17.3751C16.5001 15.4796 14.958 13.9376 13.0626 13.9376Z" fill="#232229"/>
<path fill-rule="evenodd" clip-rule="evenodd" d="M11.0001 0.1875C10.6199 0.1875 10.3126 0.495502 10.3126 0.875005C10.3126 1.25451 10.6199 1.56251 11.0001 1.56251C15.9282 1.56251 19.9377 5.57204 19.9377 10.5001C19.9377 10.8796 20.245 11.1876 20.6252 11.1876C21.0054 11.1876 21.3127 10.8796 21.3127 10.5001C21.3127 4.81372 16.6865 0.1875 11.0001 0.1875Z" fill="#232229"/>
<path fill-rule="evenodd" clip-rule="evenodd" d="M11.0001 3.625C10.6199 3.625 10.3126 3.933 10.3126 4.31251C10.3126 4.69201 10.6199 5.00001 11.0001 5.00001C14.0327 5.00001 16.5002 7.46747 16.5002 10.5001C16.5002 10.8796 16.8075 11.1876 17.1877 11.1876C17.5679 11.1876 17.8752 10.8796 17.8752 10.5001C17.8752 6.70915 14.791 3.625 11.0001 3.625Z" fill="#232229"/>
<path fill-rule="evenodd" clip-rule="evenodd" d="M13.0626 10.5C13.0626 10.8795 13.37 11.1875 13.7501 11.1875C14.1303 11.1875 14.4377 10.8795 14.4377 10.5C14.4377 8.60457 12.8956 7.0625 11.0001 7.0625C10.6199 7.0625 10.3126 7.3705 10.3126 7.75001C10.3126 8.12951 10.6199 8.43751 11.0001 8.43751C12.1373 8.43751 13.0626 9.36289 13.0626 10.5Z" fill="#232229"/>
</svg>
