<svg width="42" height="40" viewBox="0 0 42 40" fill="none" xmlns="http://www.w3.org/2000/svg">
<path d="M21.92 0.68C14.4395 0.68 7.65265 4.99429 4.46163 11.72H1.68006C1.36201 11.72 1.06555 11.8853 0.898429 12.1566C0.73132 12.428 0.715147 12.7658 0.857101 13.0515L4.5371 20.4115C4.69343 20.7223 5.01145 20.92 5.36009 20.92C5.70872 20.92 6.02672 20.7224 6.18307 20.4115L9.86307 13.0515C10.005 12.7658 9.99065 12.4279 9.82174 12.1566C9.65464 11.8853 9.35816 11.72 9.04011 11.72H6.52631C9.55582 6.08868 15.4494 2.52 21.9202 2.52C31.5586 2.52 39.4002 10.3616 39.4002 20C39.4002 29.6384 31.5586 37.48 21.9202 37.48C14.7617 37.48 8.39851 33.1891 5.71257 26.5476C5.5221 26.0769 4.98843 25.8505 4.51404 26.0391C4.04327 26.2296 3.81507 26.765 4.00551 27.2376C6.97573 34.5779 14.0068 39.32 21.9202 39.32C32.5738 39.32 41.2402 30.6536 41.2402 20C41.2402 9.3464 32.5738 0.68 21.9202 0.68H21.92ZM5.36001 17.9424L3.16784 13.5599H7.5504L5.36001 17.9424ZM25.6 21.8399C25.6 23.3618 24.362 24.5999 22.84 24.5999V25.9799C22.84 26.4884 22.4285 26.8999 21.92 26.8999C21.4115 26.8999 21 26.4884 21 25.9799V24.5999H19.62C19.1115 24.5999 18.7 24.1884 18.7 23.6799C18.7 23.1713 19.1115 22.7599 19.62 22.7599H22.84C23.3468 22.7599 23.76 22.3466 23.76 21.8399C23.76 21.3331 23.3467 20.9199 22.84 20.9199H21C19.4781 20.9199 18.24 19.6818 18.24 18.1599C18.24 16.6379 19.4781 15.3999 21 15.3999V14.0199C21 13.5113 21.4115 13.0999 21.92 13.0999C22.4285 13.0999 22.84 13.5113 22.84 14.0199V15.3999H24.22C24.7285 15.3999 25.14 15.8113 25.14 16.3199C25.14 16.8284 24.7285 17.2399 24.22 17.2399H21C20.4933 17.2399 20.08 17.6531 20.08 18.1599C20.08 18.6666 20.4933 19.0799 21 19.0799H22.84C24.362 19.0799 25.6 20.3179 25.6 21.8399ZM21.92 30.5799C16.0854 30.5799 11.34 25.8345 11.34 19.9999C11.34 14.1652 16.0854 9.41986 21.92 9.41986C27.7547 9.41986 32.5 14.1652 32.5 19.9999C32.5 25.8345 27.7547 30.5799 21.92 30.5799ZM21.92 11.2599C17.1006 11.2599 13.18 15.1806 13.18 19.9999C13.18 24.8191 17.1008 28.7399 21.92 28.7399C26.7393 28.7399 30.66 24.8191 30.66 19.9999C30.66 15.1806 26.7393 11.2599 21.92 11.2599Z" fill="#232229"/>
</svg>
