<svg width="18" height="18" viewBox="0 0 18 18" fill="none" xmlns="http://www.w3.org/2000/svg">
<path d="M8.10329 1.51243C8.47013 0.769263 9.52987 0.769263 9.89671 1.51243L11.8576 5.48489C12.0031 5.77974 12.2843 5.9842 12.6096 6.03175L16.9962 6.67292C17.8161 6.79276 18.1429 7.8006 17.5493 8.37876L14.3768 11.4688C14.1409 11.6985 14.0333 12.0297 14.0889 12.3542L14.8374 16.7184C14.9775 17.5354 14.12 18.1584 13.3864 17.7725L9.46545 15.7106C9.17407 15.5573 8.82593 15.5573 8.53455 15.7106L4.61363 17.7725C3.88 18.1584 3.02245 17.5354 3.16257 16.7184L3.91109 12.3542C3.96675 12.0297 3.85908 11.6985 3.62321 11.4688L0.450678 8.37876C-0.142915 7.8006 0.183869 6.79276 1.00378 6.67292L5.39037 6.03175C5.71572 5.9842 5.99691 5.77974 6.14245 5.48489L8.10329 1.51243Z" fill="#F0C418"/>
</svg>