<svg width="21" height="17" viewBox="0 0 21 17" fill="none" xmlns="http://www.w3.org/2000/svg">
<path d="M18.9189 4.4275C19.7322 3.85 20.4164 3.12917 20.9739 2.29917V2.29833C20.2297 2.62417 19.438 2.84083 18.6114 2.94583C19.4614 2.43833 20.1105 1.64083 20.4155 0.68C19.623 1.1525 18.748 1.48583 17.8155 1.6725C17.063 0.870833 15.9905 0.375 14.8205 0.375C12.5505 0.375 10.723 2.2175 10.723 4.47583C10.723 4.80083 10.7505 5.11333 10.818 5.41083C7.40971 5.24417 4.39304 3.61083 2.36638 1.12167C2.01304 1.73583 1.80471 2.43833 1.80471 3.19417C1.80471 4.61417 2.53554 5.8725 3.62638 6.60167C2.96721 6.58917 2.32138 6.3975 1.77388 6.09667V6.14167C1.77388 8.13417 3.19471 9.78917 5.05888 10.1708C4.72471 10.2625 4.36138 10.3058 3.98388 10.3058C3.72138 10.3058 3.45638 10.2908 3.20804 10.2358C3.73888 11.8592 5.24721 13.0533 7.03888 13.0925C5.64388 14.1833 3.87221 14.8408 1.95471 14.8408C1.61888 14.8408 1.29638 14.8258 0.973877 14.785C2.79054 15.9558 4.94221 16.625 7.26388 16.625C14.4997 16.625 19.2155 10.5883 18.9189 4.4275Z" fill="#232229"/>
</svg>
