<svg width="14" height="13" viewBox="0 0 14 13" fill="none" xmlns="http://www.w3.org/2000/svg">
<path d="M1.16155 11.3302C0.84514 11.6466 0.830073 12.2117 1.16908 12.5431C1.50055 12.8746 2.06556 12.8671 2.38197 12.5507L6.99246 7.93264L11.6105 12.5507C11.9344 12.8746 12.4919 12.8746 12.8234 12.5431C13.1473 12.2041 13.1549 11.6542 12.8234 11.3302L8.21289 6.71222L12.8234 2.10173C13.1549 1.77779 13.1549 1.22031 12.8234 0.888837C12.4844 0.564897 11.9344 0.557364 11.6105 0.881303L6.99246 5.49933L2.38197 0.881303C2.06556 0.564897 1.49302 0.54983 1.16908 0.888837C0.837607 1.22031 0.84514 1.78532 1.16155 2.10173L5.77957 6.71222L1.16155 11.3302Z" fill="#015EA1"/>
</svg>
