<svg width="163" height="133" viewBox="0 0 163 133" fill="none" xmlns="http://www.w3.org/2000/svg">
<path fill-rule="evenodd" clip-rule="evenodd" d="M58.6776 77.9821L46.9133 75.8475C50.7087 77.2473 54.6426 77.9238 58.6776 77.9821ZM82.2695 89.3566C77.8754 88.0265 73.4778 86.8594 69.2833 85.0603C73.2015 87.7729 77.7129 88.7062 82.2695 89.3566ZM79.5627 71.8687C80.4669 70.3501 79.3683 69.9716 78.3865 69.5792C75.0671 68.2502 72.1277 69.7027 69.3307 71.1186C67.292 72.1503 65.3028 73.4796 64.0695 75.5575C63.599 76.3495 63.4452 77.1062 64.8065 77.1327C68.5232 77.2043 72.1489 76.7768 75.5355 75.1335C77.149 74.3506 78.568 73.2896 79.5627 71.8687ZM70.3443 83.2591C72.7659 84.8223 75.5547 85.5165 78.2929 86.2887C90.1247 89.6244 101.987 89.1514 113.91 86.6934C121.874 85.0512 129.604 82.6656 137.265 80.0025C137.964 79.7601 138.662 79.487 139.421 79.6297C140.274 79.7904 140.742 80.1365 139.862 80.8888C139.646 81.0746 139.197 81.1057 139.561 81.4962C140.814 82.8438 139.76 83.7152 138.907 84.5687C137.306 86.1708 135.176 86.932 133.193 87.86C127.639 90.4605 121.981 92.8532 116.057 94.4829C110.559 95.9955 104.902 96.6945 99.2297 97.2346C95.6188 97.5784 91.941 97.8781 88.4531 96.9616C86.136 96.3528 83.8135 96.6419 81.5397 96.0706C77.1807 94.975 72.8505 93.8375 68.8132 91.7959C65.4904 90.1153 62.8174 87.721 60.9413 84.5019C60.3231 83.4403 59.4763 82.9021 58.3161 82.7469C55.1895 82.3276 52.0668 81.8067 48.9768 81.2483C43.9492 80.3408 39.0888 78.6398 34.3254 76.7625C26.728 73.7683 19.5334 70.0533 13.338 64.6267C9.69671 61.4372 6.31394 58.056 5.02579 53.156C4.68657 51.866 4.60646 50.6121 5.34869 49.4146C5.66798 48.8981 6.0636 48.5963 6.70505 48.6733C7.46305 48.7652 7.2675 49.2272 7.32031 49.7833C7.68131 53.5973 10.5406 55.7205 13.1057 58.0009C20.1746 64.2853 28.5939 68.1373 37.361 71.3422C44.0699 73.7944 50.9537 75.5687 58.0371 76.5352C58.5996 76.6121 59.2182 76.9903 59.3354 75.9121C59.7435 72.1558 61.724 69.2173 64.5187 66.8584C68.8323 63.2169 73.6867 61.0484 79.474 62.4907C82.5838 63.2654 83.8624 65.1596 84.1151 68.3363C84.7603 76.4292 78.972 81.4006 72.2697 82.5077C71.6693 82.6061 71.0695 82.7048 70.4706 82.8033C70.4281 82.9555 70.3865 83.1075 70.3443 83.2591Z" fill="#015EA1"/>
<path fill-rule="evenodd" clip-rule="evenodd" d="M144.778 72.9604C148.468 73.7801 152.186 74.0849 155.944 73.634C152.222 73.4094 148.5 73.1854 144.778 72.9604ZM143.658 89.8076C145.646 86.5345 148.157 83.6576 150.55 80.6904C150.907 80.247 151.561 79.916 151.195 79.1365C150.843 78.388 150.147 78.5435 149.598 78.5758C146.602 78.7489 143.722 78.0328 140.79 77.6462C138.938 77.4028 137.025 77.5073 135.129 77.199C132.211 76.7235 129.254 76.4661 126.307 76.1927C124.813 76.0539 123.449 75.2219 121.826 75.6634C120.233 76.0961 119.318 75.1602 119.054 72.7546C118.919 71.5269 119.323 70.2275 120.873 70.031C122.147 69.8695 123.456 69.804 124.735 69.8941C133.201 70.4917 141.661 71.1577 150.126 71.765C152.026 71.9015 153.937 71.91 155.843 71.9546C159.309 72.0355 160.201 73.0659 160.069 76.5454C159.967 79.2464 158.875 81.34 156.867 83.1207C153.002 86.5488 149.235 90.0871 146.07 94.2002C145.436 95.0246 144.918 95.9373 144.316 96.7876C143.619 97.7727 142.977 97.7566 142.437 96.6284C141.239 94.1285 141.336 93.575 143.658 89.8076Z" fill="#015EA1"/>
</svg>
