<svg width="22" height="23" viewBox="0 0 22 23" fill="none" xmlns="http://www.w3.org/2000/svg">
<path fill-rule="evenodd" clip-rule="evenodd" d="M14.1758 11.7458L19.9377 6.80672V16.273L14.1758 11.7458ZM8.88885 12.6581L10.5526 14.0846C10.8104 14.3053 11.1899 14.3053 11.4477 14.0846L13.1115 12.6581L18.637 17.0003H3.36199L8.88885 12.6581ZM11.0002 12.6574L3.23342 6.00029H18.7669L11.0002 12.6574ZM2.0626 6.80739L7.82458 11.7457L2.0626 16.273V6.80739ZM21.3128 17.6878V5.31275C21.3128 4.92775 20.956 4.62524 20.6253 4.62524H1.37513C1.02725 4.62524 0.687622 4.92362 0.687622 5.31275V17.6878C0.687622 18.0488 1.01556 18.3753 1.37513 18.3753H20.6253C21.0117 18.3753 21.3128 18.0337 21.3128 17.6878Z" fill="#232229"/>
</svg>
