<svg width="11" height="18" viewBox="0 0 11 18" fill="none" xmlns="http://www.w3.org/2000/svg">
<path d="M0.98876 0.969137C0.751057 1.20691 0.617523 1.52936 0.617523 1.86557C0.617523 2.20178 0.751057 2.52423 0.98876 2.76201L7.26508 9.03832L0.98876 15.3146C0.757794 15.5538 0.629992 15.8741 0.632881 16.2065C0.63577 16.539 0.769118 16.857 1.00421 17.0921C1.23929 17.3272 1.55731 17.4605 1.88976 17.4634C2.22221 17.4663 2.54249 17.3385 2.78163 17.1075L9.95438 9.93476C10.1921 9.69698 10.3256 9.37454 10.3256 9.03832C10.3256 8.70211 10.1921 8.37966 9.95438 8.14189L2.78163 0.969137C2.54386 0.731434 2.22141 0.5979 1.8852 0.5979C1.54898 0.5979 1.22653 0.731434 0.98876 0.969137Z" fill="#232229"/>
</svg>
