<svg width="14" height="14" viewBox="0 0 14 14" fill="none" xmlns="http://www.w3.org/2000/svg">
<path d="M1.54575 7.56647H6.14118V12.1619C6.14118 12.629 6.52538 13.0207 6.99999 13.0207C7.4746 13.0207 7.85881 12.629 7.85881 12.1619V7.56647H12.4542C12.9213 7.56647 13.3131 7.18226 13.3131 6.70765C13.3131 6.23304 12.9213 5.84883 12.4542 5.84883H7.85881V1.25341C7.85881 0.786333 7.4746 0.394592 6.99999 0.394592C6.52538 0.394592 6.14118 0.786333 6.14118 1.25341V5.84883H1.54575C1.07868 5.84883 0.686935 6.23304 0.686935 6.70765C0.686935 7.18226 1.07868 7.56647 1.54575 7.56647Z" fill="#232229"/>
</svg>
