<svg width="99" height="71" viewBox="0 0 99 71" fill="none" xmlns="http://www.w3.org/2000/svg">
<ellipse cx="2.5" cy="2.62469" rx="2.5" ry="2.62469" fill="#015EA1"/>
<ellipse cx="2.5" cy="46.4091" rx="2.5" ry="2.62469" fill="#015EA1"/>
<ellipse cx="39.89" cy="2.62469" rx="2.5" ry="2.62469" fill="#015EA1"/>
<ellipse cx="39.89" cy="46.4091" rx="2.5" ry="2.62469" fill="#015EA1"/>
<ellipse cx="77.28" cy="2.62469" rx="2.5" ry="2.62469" fill="#015EA1"/>
<ellipse cx="77.28" cy="46.4091" rx="2.5" ry="2.62469" fill="#015EA1"/>
<ellipse cx="2.5" cy="24.5168" rx="2.5" ry="2.62469" fill="#015EA1"/>
<ellipse cx="2.5" cy="68.301" rx="2.5" ry="2.62469" fill="#015EA1"/>
<ellipse cx="39.89" cy="24.5168" rx="2.5" ry="2.62469" fill="#015EA1"/>
<ellipse cx="39.89" cy="68.301" rx="2.5" ry="2.62469" fill="#015EA1"/>
<ellipse cx="77.28" cy="24.5168" rx="2.5" ry="2.62469" fill="#015EA1"/>
<ellipse cx="77.28" cy="68.301" rx="2.5" ry="2.62469" fill="#015EA1"/>
<ellipse cx="21.195" cy="2.62469" rx="2.5" ry="2.62469" fill="#015EA1"/>
<ellipse cx="21.195" cy="46.4091" rx="2.5" ry="2.62469" fill="#015EA1"/>
<ellipse cx="58.585" cy="2.62469" rx="2.5" ry="2.62469" fill="#015EA1"/>
<ellipse cx="58.585" cy="46.4091" rx="2.5" ry="2.62469" fill="#015EA1"/>
<ellipse cx="95.9751" cy="2.62469" rx="2.5" ry="2.62469" fill="#015EA1"/>
<ellipse cx="95.9751" cy="46.4091" rx="2.5" ry="2.62469" fill="#015EA1"/>
<ellipse cx="21.195" cy="24.5168" rx="2.5" ry="2.62469" fill="#015EA1"/>
<ellipse cx="21.195" cy="68.301" rx="2.5" ry="2.62469" fill="#015EA1"/>
<ellipse cx="58.585" cy="24.5168" rx="2.5" ry="2.62469" fill="#015EA1"/>
<ellipse cx="58.585" cy="68.301" rx="2.5" ry="2.62469" fill="#015EA1"/>
<ellipse cx="95.9751" cy="24.5168" rx="2.5" ry="2.62469" fill="#015EA1"/>
<ellipse cx="95.9751" cy="68.301" rx="2.5" ry="2.62469" fill="#015EA1"/>
</svg>
