<svg width="32" height="32" viewBox="0 0 32 32" fill="none" xmlns="http://www.w3.org/2000/svg">
<path d="M27.2998 31.2H22.1997V29.7H27.2998C28.6998 29.7 29.7998 28.6 29.7998 27.2V4.70016C29.7998 3.30016 28.6998 2.20016 27.2998 2.20016H4.69983C3.29983 2.20016 2.19983 3.30016 2.19983 4.70016V27.3002C2.19983 28.7002 3.29983 29.8002 4.69983 29.8002H9.79999V31.3002H4.69983C2.49983 31.3002 0.699829 29.5002 0.699829 27.3002V4.70016C0.699829 2.50016 2.49983 0.700161 4.69983 0.700161H27.2998C29.4998 0.700161 31.2998 2.50016 31.2998 4.70016V27.3002C31.2998 29.5002 29.4998 31.2003 27.2998 31.2003V31.2Z" fill="#232229"/>
<path d="M15.2998 15.2998H16.7998V30.4998H15.2998V15.2998Z" fill="#232229"/>
<path d="M24.2 16H7.79999L16 7.8L24.2 16ZM11.4 14.5H20.6L16 9.9L11.4 14.5Z" fill="#232229"/>
</svg>
