<svg width="24" height="20" viewBox="0 0 24 20" fill="none" xmlns="http://www.w3.org/2000/svg">
<path d="M0.666626 1.49998C0.666626 1.12426 0.815882 0.763922 1.08156 0.498245C1.34723 0.232569 1.70757 0.083313 2.08329 0.083313H21.9166C22.2923 0.083313 22.6527 0.232569 22.9184 0.498245C23.184 0.763922 23.3333 1.12426 23.3333 1.49998C23.3333 1.8757 23.184 2.23604 22.9184 2.50171C22.6527 2.76739 22.2923 2.91665 21.9166 2.91665H2.08329C1.70757 2.91665 1.34723 2.76739 1.08156 2.50171C0.815882 2.23604 0.666626 1.8757 0.666626 1.49998ZM0.666626 18.5C0.666626 18.1243 0.815882 17.7639 1.08156 17.4982C1.34723 17.2326 1.70757 17.0833 2.08329 17.0833H21.9166C22.2923 17.0833 22.6527 17.2326 22.9184 17.4982C23.184 17.7639 23.3333 18.1243 23.3333 18.5C23.3333 18.8757 23.184 19.236 22.9184 19.5017C22.6527 19.7674 22.2923 19.9166 21.9166 19.9166H2.08329C1.70757 19.9166 1.34723 19.7674 1.08156 19.5017C0.815882 19.236 0.666626 18.8757 0.666626 18.5ZM10.5833 8.58331C10.2076 8.58331 9.84723 8.73257 9.58156 8.99825C9.31588 9.26392 9.16663 9.62426 9.16663 9.99998C9.16663 10.3757 9.31588 10.736 9.58156 11.0017C9.84723 11.2674 10.2076 11.4166 10.5833 11.4166H21.9166C22.2923 11.4166 22.6527 11.2674 22.9184 11.0017C23.184 10.736 23.3333 10.3757 23.3333 9.99998C23.3333 9.62426 23.184 9.26392 22.9184 8.99825C22.6527 8.73257 22.2923 8.58331 21.9166 8.58331H10.5833Z" fill="black"/>
</svg>
