<svg width="48" height="49" viewBox="0 0 48 49" fill="none" xmlns="http://www.w3.org/2000/svg">
<g clip-path="url(#clip0_718_4709)">
<path d="M1.0243 24.0207C1.02318 28.106 2.08518 32.095 4.10455 35.6109L0.831177 47.6239L13.0622 44.4004C16.4451 46.2515 20.2354 47.2215 24.0872 47.2217H24.0973C36.8126 47.2217 47.1632 36.8218 47.1686 24.0389C47.1711 17.8447 44.7733 12.0201 40.4169 7.63797C36.0613 3.25621 30.2685 0.841816 24.0964 0.838989C11.3796 0.838989 1.02974 11.2384 1.02449 24.0207" fill="url(#paint0_linear_718_4709)"/>
<path d="M0.200625 24.0132C0.199313 28.2455 1.29937 32.3771 3.39075 36.019L0 48.4626L12.6696 45.1236C16.1604 47.0367 20.0908 48.0454 24.0902 48.0469H24.1005C37.272 48.0469 47.9944 37.2728 48 24.0324C48.0023 17.6156 45.5182 11.5816 41.0062 7.04247C36.4937 2.50392 30.4937 0.00263848 24.1005 0C10.9267 0 0.206062 10.7725 0.200812 24.0132H0.200625ZM7.74563 35.3918L7.27256 34.637C5.28394 31.4588 4.23431 27.786 4.23581 24.0147C4.24012 13.0094 13.1509 4.05572 24.108 4.05572C29.4143 4.05798 34.401 6.1371 38.1517 9.90937C41.9023 13.682 43.9661 18.697 43.9648 24.0309C43.9599 35.0362 35.049 43.991 24.1005 43.991H24.0926C20.5277 43.9891 17.0314 43.0268 13.9823 41.2083L13.2566 40.7758L5.73825 42.7571L7.74563 35.3916V35.3918Z" fill="url(#paint1_linear_718_4709)"/>
<path d="M18.1272 13.9742C17.6798 12.9748 17.209 12.9546 16.7835 12.9371C16.4352 12.922 16.0369 12.9231 15.639 12.9231C15.2408 12.9231 14.5937 13.0737 14.0468 13.674C13.4993 14.2748 11.9565 15.7267 11.9565 18.6797C11.9565 21.6329 14.0965 24.4868 14.3948 24.8877C14.6935 25.2878 18.526 31.5417 24.5957 33.9476C29.6402 35.947 30.6668 35.5494 31.7616 35.4491C32.8566 35.3492 35.2949 33.9976 35.7923 32.596C36.2901 31.1946 36.2901 29.9933 36.1409 29.7423C35.9916 29.4922 35.5934 29.342 34.9962 29.042C34.3988 28.7417 31.4629 27.2896 30.9156 27.0893C30.3681 26.8891 29.97 26.7893 29.5718 27.3903C29.1735 27.9903 28.03 29.342 27.6814 29.7423C27.3332 30.1435 26.9847 30.1935 26.3877 29.8932C25.7901 29.5921 23.8669 28.959 21.5852 26.9144C19.81 25.3234 18.6115 23.3587 18.2631 22.7577C17.9147 22.1576 18.2258 21.8323 18.5252 21.5332C18.7935 21.2643 19.1226 20.8323 19.4215 20.482C19.7192 20.1314 19.8186 19.8813 20.0177 19.4811C20.217 19.0804 20.1173 18.7298 19.9682 18.4296C19.8186 18.1294 18.6582 15.1611 18.1272 13.9744" fill="white"/>
</g>
<defs>
<linearGradient id="paint0_linear_718_4709" x1="23.9999" y1="47.6239" x2="23.9999" y2="0.838989" gradientUnits="userSpaceOnUse">
<stop stop-color="#1FAF38"/>
<stop offset="1" stop-color="#60D669"/>
</linearGradient>
<linearGradient id="paint1_linear_718_4709" x1="24" y1="48.4626" x2="24" y2="0" gradientUnits="userSpaceOnUse">
<stop stop-color="#F9F9F9"/>
<stop offset="1" stop-color="white"/>
</linearGradient>
<clipPath id="clip0_718_4709">
<rect width="48" height="48.6234" fill="white"/>
</clipPath>
</defs>
</svg>
